<svg xmlns="http://www.w3.org/2000/svg" viewBox="0 0 500 500"><g id="freepik--background-complete--inject-24"><rect y="382.4" width="500" height="0.25" style="fill:#ebebeb"></rect><rect x="416.78" y="398.49" width="33.12" height="0.25" style="fill:#ebebeb"></rect><rect x="322.53" y="401.21" width="8.69" height="0.25" style="fill:#ebebeb"></rect><rect x="368.11" y="389.21" width="47.67" height="0.25" style="fill:#ebebeb"></rect><rect x="52.46" y="390.89" width="23.68" height="0.25" style="fill:#ebebeb"></rect><rect x="85.04" y="390.89" width="25.85" height="0.25" style="fill:#ebebeb"></rect><rect x="131.47" y="395.11" width="64.64" height="0.25" style="fill:#ebebeb"></rect><path d="M237,337.8H43.91a5.71,5.71,0,0,1-5.7-5.71V60.66A5.71,5.71,0,0,1,43.91,55H237a5.71,5.71,0,0,1,5.71,5.71V332.09A5.71,5.71,0,0,1,237,337.8ZM43.91,55.2a5.46,5.46,0,0,0-5.45,5.46V332.09a5.46,5.46,0,0,0,5.45,5.46H237a5.47,5.47,0,0,0,5.46-5.46V60.66A5.47,5.47,0,0,0,237,55.2Z" style="fill:#ebebeb"></path><path d="M453.31,337.8H260.21a5.72,5.72,0,0,1-5.71-5.71V60.66A5.72,5.72,0,0,1,260.21,55h193.1A5.71,5.71,0,0,1,459,60.66V332.09A5.71,5.71,0,0,1,453.31,337.8ZM260.21,55.2a5.47,5.47,0,0,0-5.46,5.46V332.09a5.47,5.47,0,0,0,5.46,5.46h193.1a5.47,5.47,0,0,0,5.46-5.46V60.66a5.47,5.47,0,0,0-5.46-5.46Z" style="fill:#ebebeb"></path><polygon points="161.34 339.89 333.1 43.89 420.48 43.89 248.72 339.89 161.34 339.89" style="fill:#fafafa"></polygon><polygon points="39.73 339.89 127.43 188.75 172.05 188.75 84.35 339.89 39.73 339.89" style="fill:#fafafa"></polygon><polygon points="337.99 249.23 408.18 128.27 443.89 128.27 373.7 249.23 337.99 249.23" style="fill:#fafafa"></polygon><polygon points="299.39 316.78 299.39 43.89 283.99 43.89 283.99 316.78 31 316.78 31 382.4 469.67 382.4 469.67 316.78 299.39 316.78" style="fill:#f0f0f0"></polygon><path d="M467.52,160.27H335.27a9.59,9.59,0,0,1-9.41-8.74L321,87.6a8,8,0,0,1,8.08-8.75H461.3a9.6,9.6,0,0,1,9.41,8.75l4.89,63.93A8,8,0,0,1,467.52,160.27Z" style="fill:#e6e6e6"></path><path d="M464.68,160.27H332.43a9.6,9.6,0,0,1-9.41-8.74L318.14,87.6a8,8,0,0,1,8.08-8.75H458.46a9.61,9.61,0,0,1,9.42,8.75l4.88,63.93A8,8,0,0,1,464.68,160.27Z" style="fill:#f0f0f0"></path><rect x="329.65" y="89.16" width="21.11" height="2" style="fill:#fff"></rect><rect x="358.07" y="89.16" width="48.08" height="2" style="fill:#fff"></rect><rect x="418.75" y="89.16" width="35.31" height="2" style="fill:#fff"></rect><rect x="330.22" y="96.71" width="21.11" height="2" style="fill:#fff"></rect><rect x="358.65" y="96.71" width="32.29" height="2" style="fill:#fff"></rect><rect x="419.33" y="96.71" width="35.31" height="2" style="fill:#fff"></rect><rect x="330.8" y="104.25" width="21.11" height="2" style="fill:#fff"></rect><rect x="359.23" y="104.25" width="41.69" height="2" style="fill:#fff"></rect><rect x="419.9" y="104.25" width="35.31" height="2" style="fill:#fff"></rect><rect x="331.38" y="111.8" width="21.11" height="2" style="fill:#fff"></rect><rect x="359.8" y="111.8" width="45.95" height="2" style="fill:#fff"></rect><rect x="420.48" y="111.8" width="35.31" height="2" style="fill:#fff"></rect><rect x="331.95" y="119.34" width="21.11" height="2" style="fill:#fff"></rect><rect x="360.38" y="119.34" width="16.14" height="2" style="fill:#fff"></rect><rect x="382.02" y="119.34" width="11.53" height="2" style="fill:#fff"></rect><rect x="421.05" y="119.34" width="35.31" height="2" style="fill:#fff"></rect><rect x="332.53" y="126.88" width="21.11" height="2" style="fill:#fff"></rect><rect x="360.95" y="126.88" width="48.08" height="2" style="fill:#fff"></rect><rect x="421.63" y="126.88" width="35.31" height="2" style="fill:#fff"></rect><rect x="333.1" y="134.43" width="21.11" height="2" style="fill:#fff"></rect><rect x="361.53" y="134.43" width="36.37" height="2" style="fill:#fff"></rect><rect x="422.21" y="134.43" width="35.31" height="2" style="fill:#fff"></rect><rect x="333.68" y="141.97" width="21.11" height="2" style="fill:#fff"></rect><rect x="362.11" y="141.97" width="32.29" height="2" style="fill:#fff"></rect><rect x="400.07" y="141.97" width="10.11" height="2" style="fill:#fff"></rect><rect x="422.78" y="141.97" width="35.31" height="2" style="fill:#fff"></rect><rect x="334.26" y="149.51" width="21.11" height="2" style="fill:#fff"></rect><rect x="362.68" y="149.51" width="44.71" height="2" style="fill:#fff"></rect><rect x="423.36" y="149.51" width="35.31" height="2" style="fill:#fff"></rect></g><g id="freepik--Shadow--inject-24"><ellipse id="freepik--path--inject-24" cx="250" cy="416.24" rx="193.89" ry="11.32" style="fill:#f5f5f5"></ellipse></g><g id="freepik--Airplane--inject-24"><path d="M247.59,85.63,134.42,111.2l-20.34-2a14.5,14.5,0,0,1-9.92-5.46h0l118.63-26.8a44.92,44.92,0,0,1,19.48-.07l1.75.38a10.19,10.19,0,0,1,5.25,3h0A3.28,3.28,0,0,1,247.59,85.63Z" style="fill:#567FD8"></path><rect x="90.24" y="119.72" width="58.54" height="1" transform="translate(-23.58 29.33) rotate(-12.75)" style="fill:#567FD8;opacity:0.30000000000000004"></rect><rect x="77.53" y="122.37" width="26.85" height="1" transform="translate(-24.87 23.1) rotate(-12.75)" style="fill:#567FD8;opacity:0.30000000000000004"></rect><rect x="79.66" y="99.39" width="13.43" height="1" transform="translate(-19.91 21.52) rotate(-12.75)" style="fill:#567FD8;opacity:0.30000000000000004"></rect><path d="M249.27,80.2a9.63,9.63,0,0,0-1.15-1.06L114.93,109.23l19.49,2L247.59,85.63a3.26,3.26,0,0,0,1.68-5.43Z" style="fill:#fff;opacity:0.1"></path><path d="M242.27,76.82a44.17,44.17,0,0,0-5.34-.82l-21,4.75h0a2.49,2.49,0,0,0,3,1.89l24.59-5.56Z" style="fill:#fff;opacity:0.5"></path><g style="opacity:0.5"><rect x="211.14" y="82.94" width="1.75" height="2.5" rx="0.69" transform="translate(-13.35 48.83) rotate(-12.74)" style="fill:#fff"></rect><rect x="207.14" y="83.84" width="1.75" height="2.5" rx="0.69" transform="translate(-13.63 47.91) rotate(-12.72)" style="fill:#fff"></rect><rect x="203.15" y="84.75" width="1.75" height="2.5" rx="0.69" transform="translate(-13.94 47.11) rotate(-12.74)" style="fill:#fff"></rect><rect x="199.15" y="85.65" width="1.75" height="2.5" rx="0.69" transform="translate(-14.24 46.26) rotate(-12.74)" style="fill:#fff"></rect><rect x="195.15" y="86.55" width="1.75" height="2.5" rx="0.69" transform="translate(-14.53 45.33) rotate(-12.72)" style="fill:#fff"></rect><rect x="191.16" y="87.45" width="1.75" height="2.5" rx="0.69" transform="translate(-14.83 44.53) rotate(-12.74)" style="fill:#fff"></rect><rect x="187.16" y="88.36" width="1.75" height="2.5" rx="0.69" transform="translate(-15.12 43.62) rotate(-12.72)" style="fill:#fff"></rect><rect x="183.16" y="89.26" width="1.75" height="2.5" rx="0.69" transform="translate(-15.43 42.81) rotate(-12.74)" style="fill:#fff"></rect><rect x="179.17" y="90.16" width="1.75" height="2.5" rx="0.69" transform="translate(-15.71 41.9) rotate(-12.72)" style="fill:#fff"></rect><rect x="175.17" y="91.07" width="1.75" height="2.5" rx="0.69" transform="translate(-16.02 41.09) rotate(-12.74)" style="fill:#fff"></rect><rect x="171.17" y="91.97" width="1.75" height="2.5" rx="0.69" transform="translate(-16.31 40.18) rotate(-12.72)" style="fill:#fff"></rect><rect x="167.17" y="92.87" width="1.75" height="2.5" rx="0.69" transform="translate(-16.62 39.39) rotate(-12.74)" style="fill:#fff"></rect><rect x="163.18" y="93.78" width="1.75" height="2.5" rx="0.69" transform="matrix(0.98, -0.22, 0.22, 0.98, -16.9, 38.47)" style="fill:#fff"></rect><rect x="159.18" y="94.68" width="1.75" height="2.5" rx="0.69" transform="translate(-17.21 37.66) rotate(-12.74)" style="fill:#fff"></rect><rect x="155.18" y="95.58" width="1.75" height="2.5" rx="0.69" transform="translate(-17.5 36.76) rotate(-12.73)" style="fill:#fff"></rect><rect x="151.19" y="96.49" width="1.75" height="2.5" rx="0.69" transform="translate(-17.81 35.94) rotate(-12.74)" style="fill:#fff"></rect><rect x="147.19" y="97.39" width="1.75" height="2.5" rx="0.69" transform="translate(-18.09 35.04) rotate(-12.72)" style="fill:#fff"></rect><rect x="143.19" y="98.29" width="1.75" height="2.5" rx="0.69" transform="translate(-18.39 34.18) rotate(-12.72)" style="fill:#fff"></rect><rect x="139.19" y="99.2" width="1.75" height="2.5" rx="0.69" transform="translate(-18.7 33.36) rotate(-12.74)" style="fill:#fff"></rect><rect x="135.2" y="100.1" width="1.75" height="2.5" rx="0.69" transform="translate(-18.99 32.47) rotate(-12.73)" style="fill:#fff"></rect></g><path d="M107.34,85.63,101.49,87l4.87,16.24L129,98.07C121.31,99.81,107.34,85.63,107.34,85.63Z" style="fill:#567FD8"></path><path d="M144.2,106.32h0a6.61,6.61,0,0,0-4.21-1.54l-15.78-.07-7.31,1.65,12.51,3.3Z" style="fill:#263238"></path><path d="M210.68,92.84l-50.13-6.48a23.75,23.75,0,0,0-8.32.39l-6.52,1.47,30.36,12.44Z" style="fill:#263238"></path><path d="M208.6,93.88l-29,15.07a21.55,21.55,0,0,1-5.17,1.88l-4.33,1,8.73-11.21Z" style="fill:#263238"></path><path d="M126.25,110.38l8.17.83L247.59,85.63a3.28,3.28,0,0,0,2.57-3.25Z" style="fill:#263238"></path></g><g id="freepik--Character--inject-24"><path d="M272.67,155.21c3.12,5.19,5.95,10.37,8.6,15.77,1.32,2.69,2.6,5.41,3.78,8.21s2.33,5.62,3.31,8.6l.37,1.12.18.57.2.7c.25.91.41,1.74.56,2.55.29,1.62.47,3.17.62,4.7.32,3,.46,6,.57,9,.18,6,.08,11.88-.3,17.84l-5.69.25-2.74-17.26c-.44-2.86-.95-5.69-1.48-8.44-.27-1.37-.58-2.72-.92-4a22.58,22.58,0,0,0-1.22-3.47c-2.11-5.06-4.72-10.18-7.41-15.24s-5.53-10.15-8.32-15.09Z" style="fill:#b65b52"></path><path d="M284.9,224.47l2,5.24,6.78-7.13s-1.4-1.52-5-2.14Z" style="fill:#b55b52"></path><polygon points="290.74 232.24 296 226.79 293.67 222.58 286.89 229.71 290.74 232.24" style="fill:#b55b52"></polygon><path d="M238.55,120.82c-.14.6-.57,1-1,.91s-.59-.65-.44-1.25.57-1,1-.9S238.7,120.23,238.55,120.82Z" style="fill:#263238"></path><path d="M238,121.84a21.92,21.92,0,0,1-4.08,4.39,3.53,3.53,0,0,0,2.71,1.23Z" style="fill:#a02724"></path><path d="M241.53,118.05a.34.34,0,0,0,.25-.09.35.35,0,0,0,0-.5,3.57,3.57,0,0,0-3-1.31.37.37,0,0,0-.31.41.37.37,0,0,0,.4.31h0a2.84,2.84,0,0,1,2.38,1.06A.35.35,0,0,0,241.53,118.05Z" style="fill:#263238"></path><path d="M252.05,128.32c-1.09,5.55-2.17,15.72,1.71,19.42,0,0-1.52,5.64-11.83,5.64-11.35,0-5.43-5.64-5.43-5.64,6.2-1.47,6-6.07,5-10.38Z" style="fill:#b55b52"></path><path d="M255,149.41c.58-2.09,1.21-4.47-.62-5-2-.61-12.67-.41-16.18,1.43s-2.09,5.82-2.09,5.82Z" style="fill:#567FD8"></path><path d="M291.87,405.16a2.43,2.43,0,0,1-1.89-.1.73.73,0,0,1-.18-.84.85.85,0,0,1,.47-.53c1-.49,3.37.47,3.48.52a.19.19,0,0,1,.11.16.17.17,0,0,1-.11.16A8.82,8.82,0,0,1,291.87,405.16ZM290.63,404l-.21.07a.49.49,0,0,0-.27.31c-.1.32,0,.42.06.45.41.35,1.92,0,3-.4A5.9,5.9,0,0,0,290.63,404Z" style="fill:#567FD8"></path><path d="M293.71,404.55h-.08c-.86-.25-2.7-1.55-2.72-2.41a.58.58,0,0,1,.46-.58,1,1,0,0,1,.8.06c1,.52,1.65,2.62,1.68,2.71a.18.18,0,0,1-.05.18A.19.19,0,0,1,293.71,404.55Zm-2.14-2.69-.08,0c-.22.07-.22.18-.22.23,0,.51,1.22,1.53,2.11,1.95a4.31,4.31,0,0,0-1.38-2.14A.67.67,0,0,0,291.57,401.86Z" style="fill:#567FD8"></path><path d="M235.91,408.88c-1,0-1.91-.14-2.23-.57a.7.7,0,0,1,0-.79.89.89,0,0,1,.57-.42c1.26-.34,3.91,1.17,4,1.23a.19.19,0,0,1,.08.19.19.19,0,0,1-.14.15A14,14,0,0,1,235.91,408.88Zm-1.2-1.47a1.29,1.29,0,0,0-.35,0,.55.55,0,0,0-.35.25c-.13.22-.08.33,0,.4.36.49,2.28.5,3.69.3A8.17,8.17,0,0,0,234.71,407.41Z" style="fill:#567FD8"></path><path d="M238.21,408.67l-.08,0c-.91-.41-2.73-2-2.59-2.91,0-.2.18-.45.67-.5a1.32,1.32,0,0,1,1,.31c1,.79,1.17,2.84,1.17,2.92a.18.18,0,0,1-.07.17A.19.19,0,0,1,238.21,408.67Zm-1.86-3.08h-.1c-.33,0-.35.16-.36.2-.08.52,1.15,1.8,2.09,2.37a4.25,4.25,0,0,0-1-2.34A1,1,0,0,0,236.35,405.59Z" style="fill:#567FD8"></path><polygon points="246.55 408.49 238.96 408.49 238.21 390.91 245.79 390.91 246.55 408.49" style="fill:#b55b52"></polygon><polygon points="302.17 402.53 294.76 404.14 287.31 387.77 294.73 386.16 302.17 402.53" style="fill:#b55b52"></polygon><path d="M294,403.39l8.34-1.8a.66.66,0,0,1,.74.37l2.89,6.27a1.12,1.12,0,0,1-.8,1.56c-2.92.58-4.37.71-8,1.51-2.26.49-7.35,1.73-10.46,2.4s-4.19-2.32-3-2.87c5.44-2.49,7.72-4.68,9.19-6.72A1.84,1.84,0,0,1,294,403.39Z" style="fill:#263238"></path><path d="M239,407.61h8.29a.67.67,0,0,1,.65.52l1.49,6.74a1.1,1.1,0,0,1-1.09,1.35c-3-.05-7.31-.22-11.06-.22-4.4,0-8.19.24-13.35.24-3.11,0-4-3.15-2.67-3.44,5.94-1.3,10.78-1.44,15.91-4.6A3.57,3.57,0,0,1,239,407.61Z" style="fill:#263238"></path><path d="M232.34,162.43c-2.05,2-4.06,3.64-6.15,5.37s-4.24,3.33-6.43,4.93a87.69,87.69,0,0,1-14.25,8.47c-.64.31-1.3.59-2,.85l-1,.41-.51.2-.13.05-.21.08L201,183a7.91,7.91,0,0,1-3,.17,7.72,7.72,0,0,1-2.66-.91,9.57,9.57,0,0,1-2.9-2.6,18.93,18.93,0,0,1-2.45-4.57,38.67,38.67,0,0,1-1.3-4.2,74,74,0,0,1-2-16.2l5.64-.81c1.48,4.83,3,9.79,4.88,14.21a32,32,0,0,0,1.48,3.1,8.76,8.76,0,0,0,1.48,2.15c.18.17.33.17,0-.05a2.25,2.25,0,0,0-.81-.3,2.92,2.92,0,0,0-1.11,0l-.2.06c-.06,0,0,0,0,0l.09,0,.39-.19.77-.38c.51-.24,1-.5,1.54-.8A97.3,97.3,0,0,0,213,163.51c2-1.51,3.93-3.09,5.88-4.67s3.89-3.28,5.68-4.84Z" style="fill:#b65b52"></path><path d="M269.69,149.46c7.11,1.63,15.47,27.17,15.47,27.17l-12.16,8s-7.74-11.88-11.77-20.35C257,155.36,262.41,147.79,269.69,149.46Z" style="fill:#263238"></path><path d="M265.65,162.55c-.62-.81-2.31,1-3.58,3.39,1.76,3.49,4,7.35,6,10.65C269.26,170.21,267.25,164.6,265.65,162.55Z" style="opacity:0.30000000000000004"></path><path d="M227.17,149.85s-8.08,9.13-.45,65.6h40.59c.28-6.23-3.63-36.63,2.38-66a105.63,105.63,0,0,0-13.59-1.72,150.47,150.47,0,0,0-17.26,0A76.07,76.07,0,0,0,227.17,149.85Z" style="fill:#263238"></path><path d="M223.73,165.39a165.54,165.54,0,0,0,0,20.26c3.07-5.14,7.63-14.65,8.33-22.26Z" style="opacity:0.30000000000000004"></path><path d="M243.17,157.25c.37,10.45-30.94,23.66-30.94,23.66l-8.42-13.22s12.77-7.84,19.13-14.74C230.8,144.43,242.89,149.29,243.17,157.25Z" style="fill:#263238"></path><path d="M208.76,165.79c1.57,3.33,5.11,10.6,7.08,13a.87.87,0,0,1-.11,1.2c-1.42,1.26-4.17,2.85-5.5,2.57-1.57-.34-10.22-12.19-9.85-13.81.26-1.1,3.69-2.89,5.84-3.91A1.91,1.91,0,0,1,208.76,165.79Z" style="fill:#567FD8"></path><path d="M270.62,179.32c3.3-1.65,10.48-5.37,12.87-7.39a.87.87,0,0,1,1.2.08c1.29,1.39,2.95,4.1,2.7,5.43-.29,1.58-11.93,10.52-13.56,10.18-1.11-.23-3-3.61-4.05-5.74A1.9,1.9,0,0,1,270.62,179.32Z" style="fill:#567FD8"></path><path d="M192.16,155.23l3.09-7.39-8-2.19s-3.6,5.65-.33,10.11Z" style="fill:#b55b52"></path><polygon points="194.56 140.1 189.74 136.93 187.24 145.65 195.25 147.84 194.56 140.1" style="fill:#b55b52"></polygon><polygon points="238.21 390.92 238.59 399.98 246.19 399.98 245.8 390.92 238.21 390.92" style="opacity:0.2"></polygon><polygon points="294.73 386.17 287.31 387.77 291.15 396.21 298.57 394.6 294.73 386.17" style="opacity:0.2"></polygon><path d="M258.7,124.39c-2.23,7.2-3.17,11.52-7.77,14.37-6.92,4.29-15.12-1.25-15.09-9,0-7,3.66-17.55,11.52-18.72A10.28,10.28,0,0,1,258.7,124.39Z" style="fill:#b55b52"></path><path d="M242.57,122.29c0-.41-1.71-4.54-.85-6.15,2-3.69,12.62.75,15.44,2.28,3.63,2,7.33,5.43,4,8-3.14,2.45-5.71,9.59-8.06,10.6s-6.94.11-8.15-1.64S240.07,126,242.57,122.29Z" style="fill:#263238"></path><path d="M243.06,114.9c-2.62-.12-5-2.21-3.41-5.26a5.34,5.34,0,0,1,4.71-2.92s-2.45,2,2.67,2.43,4.21-3.62,2.71-4.86c2.58.66,5.73,1.95,5.88,4.69s6.2,4.81,5.83,1.59c0,0,4.79,4.33,1,5.66s6.53,2.69,6.2,5.65c-.84-.35-4.13-1.1-3.42,1.55s-1.71,4-5.42,3.14S247.14,120.47,243.06,114.9Z" style="fill:#263238"></path><path d="M246.42,123.49a6.9,6.9,0,0,1-3.39,4.57c-2.21,1.07-3.44.13-3.37-2.11.06-2,1.14-5.24,3.3-5.9S246.81,121.27,246.42,123.49Z" style="fill:#b55b52"></path><path d="M241.12,215.45s8.61,58,13.34,79.72c5.18,23.8,32.86,100.07,32.86,100.07l13.59-2.94s-20.73-71.41-23.68-95c-3.21-25.57-9.92-81.88-9.92-81.88Z" style="fill:#567FD8"></path><path d="M283.69,389.15c-.05,0,2.91,6.47,2.91,6.47l15.29-3.31-1.67-6.15Z" style="fill:#263238"></path><path d="M246.56,236.11c10,1.95,8.91,39.09,7.71,58.19-2.87-13.5-7.08-39.48-10-57.92A3.44,3.44,0,0,1,246.56,236.11Z" style="opacity:0.30000000000000004"></path><path d="M226.72,215.45s-1,56.74-.22,79.88c.86,24.07,9.27,102.89,9.27,102.89h12.85s.48-77.41,1-101.05c.62-25.77,3.73-81.72,3.73-81.72Z" style="fill:#567FD8"></path><path d="M233.29,391.54c-.06,0,.73,6.9.73,6.9h15.64l.42-6.33Z" style="fill:#263238"></path><rect x="336.2" y="290.62" width="67.56" height="106.58" rx="12" transform="translate(-88.7 132.3) rotate(-18.14)" style="fill:#263238"></rect><path d="M362.15,402.93A13.05,13.05,0,0,1,349.78,394l-25.71-78.47a13,13,0,0,1,8.3-16.41l41.39-13.56a13,13,0,0,1,16.41,8.31l25.71,78.47a13,13,0,0,1-8.31,16.4l-41.39,13.56A12.73,12.73,0,0,1,362.15,402.93Zm15.65-116a11.06,11.06,0,0,0-3.41.55L333,301a11,11,0,0,0-7,13.88l25.71,78.48a11,11,0,0,0,13.88,7L407,386.82a11,11,0,0,0,7-13.88l-25.71-78.47a11,11,0,0,0-5.49-6.38A11.13,11.13,0,0,0,377.8,286.89Zm-45.11,13.16h0Z" style="fill:#263238"></path><path d="M313,307.84a1,1,0,0,1-.95-.69l-23.35-71.26a13,13,0,0,1,5.31-15,3.41,3.41,0,0,1,3-.34,3.48,3.48,0,0,1,2.15,2.2l26.12,79.72a1,1,0,1,1-1.9.62L297.2,223.41a1.44,1.44,0,0,0-.92-.94,1.38,1.38,0,0,0-1.22.13,11,11,0,0,0-4.5,12.67l23.35,71.25a1,1,0,0,1-.64,1.27A1.06,1.06,0,0,1,313,307.84Z" style="fill:#263238"></path><path d="M349.76,409.77a6.47,6.47,0,1,0-6.46,6.47A6.46,6.46,0,0,0,349.76,409.77Z" style="fill:#263238"></path><path d="M368.33,406.88a6.46,6.46,0,1,0-6.46,6.46A6.46,6.46,0,0,0,368.33,406.88Z" style="fill:#263238"></path><rect x="319.82" y="295.99" width="67.56" height="106.58" rx="12" transform="translate(-91.18 127.47) rotate(-18.14)" style="fill:#567FD8"></rect><path d="M345.77,408.3a13.09,13.09,0,0,1-12.37-8.95l-25.71-78.48a13,13,0,0,1,8.31-16.4l41.39-13.56a13,13,0,0,1,16.4,8.3l25.71,78.48a13,13,0,0,1-8.3,16.4l-41.39,13.56A12.79,12.79,0,0,1,345.77,408.3ZM316.31,305.42l.31.95a11,11,0,0,0-7,13.88l25.71,78.47a11,11,0,0,0,13.88,7l41.39-13.56a11,11,0,0,0,7-13.88l-25.71-78.47a11,11,0,0,0-13.88-7l-41.39,13.56Z" style="fill:#263238"></path><rect x="325.31" y="338.24" width="56.58" height="22.09" transform="matrix(0.95, -0.31, 0.31, 0.95, -91.18, 127.47)" style="fill:#fff;opacity:0.2"></rect><circle cx="355.41" cy="314.82" r="8.62" transform="translate(2.69 632.65) rotate(-83.56)" style="fill:#fff"></circle><path d="M333.45,337.28l-2.63,12.55a3.42,3.42,0,0,0,4.41,3.95l12.18-4a3.42,3.42,0,0,0,1.22-5.8l-9.55-8.56A3.42,3.42,0,0,0,333.45,337.28Z" style="fill:#fff"></path><rect x="367.42" y="370.37" width="8.5" height="25.5" rx="2.6" transform="translate(-15.25 750.82) rotate(-89.41)" style="fill:#fff"></rect></g></svg>
